<mxfile host="app.diagrams.net" agent="Mozilla/5.0 (X11; Ubuntu; Linux x86_64; rv:144.0) Gecko/20100101 Firefox/144.0" version="28.2.7">
  <diagram name="Página-1" id="z-ejrKA-Ldqi5EkzMe7N">
    <mxGraphModel dx="3080" dy="765" grid="1" gridSize="10" guides="1" tooltips="1" connect="1" arrows="1" fold="1" page="1" pageScale="1" pageWidth="827" pageHeight="1169" math="0" shadow="0">
      <root>
        <mxCell id="0" />
        <mxCell id="1" parent="0" />
        <mxCell id="V5Fr79l8Gq5V4lvlE3Y7-20" style="rounded=0;orthogonalLoop=1;jettySize=auto;html=1;exitX=0.25;exitY=0;exitDx=0;exitDy=0;entryX=1;entryY=1;entryDx=0;entryDy=0;endArrow=none;endFill=0;" parent="1" source="V5Fr79l8Gq5V4lvlE3Y7-1" target="V5Fr79l8Gq5V4lvlE3Y7-17" edge="1">
          <mxGeometry relative="1" as="geometry" />
        </mxCell>
        <mxCell id="V5Fr79l8Gq5V4lvlE3Y7-21" style="edgeStyle=orthogonalEdgeStyle;rounded=0;orthogonalLoop=1;jettySize=auto;html=1;exitX=0.5;exitY=0;exitDx=0;exitDy=0;entryX=0.5;entryY=1;entryDx=0;entryDy=0;endArrow=none;endFill=0;" parent="1" source="V5Fr79l8Gq5V4lvlE3Y7-1" target="V5Fr79l8Gq5V4lvlE3Y7-18" edge="1">
          <mxGeometry relative="1" as="geometry" />
        </mxCell>
        <mxCell id="V5Fr79l8Gq5V4lvlE3Y7-22" style="rounded=0;orthogonalLoop=1;jettySize=auto;html=1;exitX=0.75;exitY=0;exitDx=0;exitDy=0;entryX=0;entryY=1;entryDx=0;entryDy=0;endArrow=none;endFill=0;" parent="1" source="V5Fr79l8Gq5V4lvlE3Y7-1" target="V5Fr79l8Gq5V4lvlE3Y7-19" edge="1">
          <mxGeometry relative="1" as="geometry" />
        </mxCell>
        <mxCell id="V5Fr79l8Gq5V4lvlE3Y7-66" style="edgeStyle=orthogonalEdgeStyle;rounded=0;orthogonalLoop=1;jettySize=auto;html=1;exitX=0.5;exitY=1;exitDx=0;exitDy=0;entryX=0.5;entryY=0;entryDx=0;entryDy=0;endArrow=none;endFill=0;" parent="1" source="V5Fr79l8Gq5V4lvlE3Y7-1" target="V5Fr79l8Gq5V4lvlE3Y7-65" edge="1">
          <mxGeometry relative="1" as="geometry" />
        </mxCell>
        <mxCell id="V5Fr79l8Gq5V4lvlE3Y7-68" value="1" style="edgeLabel;html=1;align=center;verticalAlign=middle;resizable=0;points=[];" parent="V5Fr79l8Gq5V4lvlE3Y7-66" vertex="1" connectable="0">
          <mxGeometry x="0.6933" relative="1" as="geometry">
            <mxPoint x="8" y="18" as="offset" />
          </mxGeometry>
        </mxCell>
        <mxCell id="V5Fr79l8Gq5V4lvlE3Y7-1" value="Empresa" style="whiteSpace=wrap;html=1;align=center;" parent="1" vertex="1">
          <mxGeometry x="180" y="100" width="100" height="40" as="geometry" />
        </mxCell>
        <mxCell id="V5Fr79l8Gq5V4lvlE3Y7-3" value="Veículo" style="whiteSpace=wrap;html=1;align=center;" parent="1" vertex="1">
          <mxGeometry x="180" y="575" width="100" height="40" as="geometry" />
        </mxCell>
        <mxCell id="1fmlvgPisqNwxJyAT-ff-81" style="edgeStyle=orthogonalEdgeStyle;rounded=0;orthogonalLoop=1;jettySize=auto;html=1;exitX=0.5;exitY=1;exitDx=0;exitDy=0;entryX=0.5;entryY=0;entryDx=0;entryDy=0;endArrow=none;endFill=0;" parent="1" source="V5Fr79l8Gq5V4lvlE3Y7-4" target="1fmlvgPisqNwxJyAT-ff-79" edge="1">
          <mxGeometry relative="1" as="geometry" />
        </mxCell>
        <mxCell id="1fmlvgPisqNwxJyAT-ff-85" value="1" style="edgeLabel;html=1;align=center;verticalAlign=middle;resizable=0;points=[];" parent="1fmlvgPisqNwxJyAT-ff-81" vertex="1" connectable="0">
          <mxGeometry x="0.9465" y="-1" relative="1" as="geometry">
            <mxPoint x="-7" y="2" as="offset" />
          </mxGeometry>
        </mxCell>
        <mxCell id="V5Fr79l8Gq5V4lvlE3Y7-4" value="Linha" style="whiteSpace=wrap;html=1;align=center;" parent="1" vertex="1">
          <mxGeometry x="-420" y="100" width="100" height="40" as="geometry" />
        </mxCell>
        <mxCell id="V5Fr79l8Gq5V4lvlE3Y7-5" value="Avaria" style="whiteSpace=wrap;html=1;align=center;" parent="1" vertex="1">
          <mxGeometry x="827" y="610" width="100" height="40" as="geometry" />
        </mxCell>
        <mxCell id="V5Fr79l8Gq5V4lvlE3Y7-112" style="rounded=0;orthogonalLoop=1;jettySize=auto;html=1;entryX=0.5;entryY=0;entryDx=0;entryDy=0;endArrow=none;endFill=0;exitX=0.5;exitY=1;exitDx=0;exitDy=0;" parent="1" source="z0Y2EbSfUYAgFqCNGjC1-13" target="V5Fr79l8Gq5V4lvlE3Y7-110" edge="1">
          <mxGeometry relative="1" as="geometry">
            <mxPoint x="-775" y="394.5" as="sourcePoint" />
          </mxGeometry>
        </mxCell>
        <mxCell id="z0Y2EbSfUYAgFqCNGjC1-27" style="rounded=0;orthogonalLoop=1;jettySize=auto;html=1;exitX=0;exitY=0.5;exitDx=0;exitDy=0;entryX=1;entryY=0.5;entryDx=0;entryDy=0;endArrow=none;endFill=0;" parent="1" source="V5Fr79l8Gq5V4lvlE3Y7-8" target="z0Y2EbSfUYAgFqCNGjC1-26" edge="1">
          <mxGeometry relative="1" as="geometry" />
        </mxCell>
        <mxCell id="z0Y2EbSfUYAgFqCNGjC1-29" style="rounded=0;orthogonalLoop=1;jettySize=auto;html=1;exitX=0;exitY=0.5;exitDx=0;exitDy=0;entryX=1;entryY=0.5;entryDx=0;entryDy=0;endArrow=none;endFill=0;" parent="1" source="V5Fr79l8Gq5V4lvlE3Y7-8" target="z0Y2EbSfUYAgFqCNGjC1-28" edge="1">
          <mxGeometry relative="1" as="geometry" />
        </mxCell>
        <mxCell id="V5Fr79l8Gq5V4lvlE3Y7-8" value="Local" style="whiteSpace=wrap;html=1;align=center;" parent="1" vertex="1">
          <mxGeometry x="-770" y="269.5" width="100" height="40" as="geometry" />
        </mxCell>
        <mxCell id="1fmlvgPisqNwxJyAT-ff-80" style="rounded=0;orthogonalLoop=1;jettySize=auto;html=1;exitX=1;exitY=0;exitDx=0;exitDy=0;entryX=0;entryY=1;entryDx=0;entryDy=0;shape=link;" parent="1" source="V5Fr79l8Gq5V4lvlE3Y7-11" target="1fmlvgPisqNwxJyAT-ff-79" edge="1">
          <mxGeometry relative="1" as="geometry" />
        </mxCell>
        <mxCell id="1fmlvgPisqNwxJyAT-ff-84" value="1" style="edgeLabel;html=1;align=center;verticalAlign=middle;resizable=0;points=[];" parent="1fmlvgPisqNwxJyAT-ff-80" vertex="1" connectable="0">
          <mxGeometry x="0.7228" y="1" relative="1" as="geometry">
            <mxPoint x="11" y="10" as="offset" />
          </mxGeometry>
        </mxCell>
        <mxCell id="V5Fr79l8Gq5V4lvlE3Y7-11" value="Viagem" style="shape=ext;margin=3;double=1;whiteSpace=wrap;html=1;align=center;" parent="1" vertex="1">
          <mxGeometry x="-580" y="650" width="100" height="40" as="geometry" />
        </mxCell>
        <mxCell id="z0Y2EbSfUYAgFqCNGjC1-5" style="rounded=0;orthogonalLoop=1;jettySize=auto;html=1;exitX=1;exitY=0.5;exitDx=0;exitDy=0;entryX=0;entryY=0.5;entryDx=0;entryDy=0;endArrow=none;endFill=0;" parent="1" source="V5Fr79l8Gq5V4lvlE3Y7-13" target="z0Y2EbSfUYAgFqCNGjC1-3" edge="1">
          <mxGeometry relative="1" as="geometry" />
        </mxCell>
        <mxCell id="1fmlvgPisqNwxJyAT-ff-78" value="1" style="edgeLabel;html=1;align=center;verticalAlign=middle;resizable=0;points=[];" parent="z0Y2EbSfUYAgFqCNGjC1-5" vertex="1" connectable="0">
          <mxGeometry x="0.4377" y="2" relative="1" as="geometry">
            <mxPoint x="5" y="16" as="offset" />
          </mxGeometry>
        </mxCell>
        <mxCell id="z0Y2EbSfUYAgFqCNGjC1-24" style="rounded=0;orthogonalLoop=1;jettySize=auto;html=1;exitX=0.75;exitY=0;exitDx=0;exitDy=0;entryX=0.5;entryY=1;entryDx=0;entryDy=0;endArrow=none;endFill=0;" parent="1" source="V5Fr79l8Gq5V4lvlE3Y7-13" target="z0Y2EbSfUYAgFqCNGjC1-23" edge="1">
          <mxGeometry relative="1" as="geometry" />
        </mxCell>
        <mxCell id="z0Y2EbSfUYAgFqCNGjC1-25" style="rounded=0;orthogonalLoop=1;jettySize=auto;html=1;exitX=0.25;exitY=0;exitDx=0;exitDy=0;entryX=0.5;entryY=1;entryDx=0;entryDy=0;endArrow=none;endFill=0;" parent="1" source="V5Fr79l8Gq5V4lvlE3Y7-13" target="z0Y2EbSfUYAgFqCNGjC1-22" edge="1">
          <mxGeometry relative="1" as="geometry" />
        </mxCell>
        <mxCell id="V5Fr79l8Gq5V4lvlE3Y7-13" value="Ocorrência" style="shape=ext;margin=3;double=1;whiteSpace=wrap;html=1;align=center;" parent="1" vertex="1">
          <mxGeometry x="500" y="575" width="100" height="40" as="geometry" />
        </mxCell>
        <mxCell id="V5Fr79l8Gq5V4lvlE3Y7-14" value="Acidente" style="whiteSpace=wrap;html=1;align=center;" parent="1" vertex="1">
          <mxGeometry x="830" y="535" width="100" height="40" as="geometry" />
        </mxCell>
        <mxCell id="V5Fr79l8Gq5V4lvlE3Y7-17" value="CNPJ" style="ellipse;whiteSpace=wrap;html=1;align=center;fontStyle=4;" parent="1" vertex="1">
          <mxGeometry x="60" y="40" width="100" height="40" as="geometry" />
        </mxCell>
        <mxCell id="V5Fr79l8Gq5V4lvlE3Y7-18" value="Razão Social" style="ellipse;whiteSpace=wrap;html=1;align=center;" parent="1" vertex="1">
          <mxGeometry x="180" y="20" width="100" height="40" as="geometry" />
        </mxCell>
        <mxCell id="V5Fr79l8Gq5V4lvlE3Y7-19" value="Nome Fantasia" style="ellipse;whiteSpace=wrap;html=1;align=center;" parent="1" vertex="1">
          <mxGeometry x="300" y="40" width="100" height="40" as="geometry" />
        </mxCell>
        <mxCell id="1fmlvgPisqNwxJyAT-ff-4" style="rounded=0;orthogonalLoop=1;jettySize=auto;html=1;entryX=0;entryY=1;entryDx=0;entryDy=0;endArrow=none;endFill=0;exitX=1;exitY=0.5;exitDx=0;exitDy=0;" parent="1" source="V5Fr79l8Gq5V4lvlE3Y7-23" target="V5Fr79l8Gq5V4lvlE3Y7-1" edge="1">
          <mxGeometry relative="1" as="geometry">
            <mxPoint x="120" y="220" as="sourcePoint" />
          </mxGeometry>
        </mxCell>
        <mxCell id="1fmlvgPisqNwxJyAT-ff-52" value="1" style="edgeLabel;html=1;align=center;verticalAlign=middle;resizable=0;points=[];" parent="1fmlvgPisqNwxJyAT-ff-4" vertex="1" connectable="0">
          <mxGeometry x="-0.4154" y="-2" relative="1" as="geometry">
            <mxPoint y="9" as="offset" />
          </mxGeometry>
        </mxCell>
        <mxCell id="V5Fr79l8Gq5V4lvlE3Y7-23" value="CONTRATA" style="shape=rhombus;perimeter=rhombusPerimeter;whiteSpace=wrap;html=1;align=center;" parent="1" vertex="1">
          <mxGeometry x="40" y="160" width="120" height="60" as="geometry" />
        </mxCell>
        <mxCell id="V5Fr79l8Gq5V4lvlE3Y7-60" style="rounded=0;orthogonalLoop=1;jettySize=auto;html=1;exitX=0.25;exitY=1;exitDx=0;exitDy=0;entryX=0.712;entryY=0.047;entryDx=0;entryDy=0;endArrow=none;endFill=0;entryPerimeter=0;" parent="1" source="V5Fr79l8Gq5V4lvlE3Y7-115" target="V5Fr79l8Gq5V4lvlE3Y7-59" edge="1">
          <mxGeometry relative="1" as="geometry">
            <mxPoint x="39.59999999999991" y="480" as="sourcePoint" />
          </mxGeometry>
        </mxCell>
        <mxCell id="V5Fr79l8Gq5V4lvlE3Y7-53" style="edgeStyle=orthogonalEdgeStyle;rounded=0;orthogonalLoop=1;jettySize=auto;html=1;exitX=1;exitY=0.5;exitDx=0;exitDy=0;entryX=0;entryY=0.5;entryDx=0;entryDy=0;endArrow=none;endFill=0;shape=link;" parent="1" source="V5Fr79l8Gq5V4lvlE3Y7-116" target="V5Fr79l8Gq5V4lvlE3Y7-115" edge="1">
          <mxGeometry relative="1" as="geometry">
            <mxPoint x="-263.4000000000001" y="625" as="sourcePoint" />
            <mxPoint x="-180.4000000000001" y="625" as="targetPoint" />
          </mxGeometry>
        </mxCell>
        <mxCell id="V5Fr79l8Gq5V4lvlE3Y7-54" value="0...1" style="edgeLabel;html=1;align=center;verticalAlign=middle;resizable=0;points=[];" parent="V5Fr79l8Gq5V4lvlE3Y7-53" vertex="1" connectable="0">
          <mxGeometry x="-0.7831" y="-5" relative="1" as="geometry">
            <mxPoint x="5" y="5" as="offset" />
          </mxGeometry>
        </mxCell>
        <mxCell id="V5Fr79l8Gq5V4lvlE3Y7-57" value="Status CNH" style="ellipse;whiteSpace=wrap;html=1;align=center;" parent="1" vertex="1">
          <mxGeometry x="50" y="535" width="100" height="40" as="geometry" />
        </mxCell>
        <mxCell id="V5Fr79l8Gq5V4lvlE3Y7-58" value="Validade CNH" style="ellipse;whiteSpace=wrap;html=1;align=center;" parent="1" vertex="1">
          <mxGeometry x="110" y="480" width="100" height="40" as="geometry" />
        </mxCell>
        <mxCell id="V5Fr79l8Gq5V4lvlE3Y7-59" value="&lt;u&gt;CNH&lt;/u&gt;" style="ellipse;whiteSpace=wrap;html=1;align=center;" parent="1" vertex="1">
          <mxGeometry x="-70" y="535" width="100" height="40" as="geometry" />
        </mxCell>
        <mxCell id="V5Fr79l8Gq5V4lvlE3Y7-61" style="rounded=0;orthogonalLoop=1;jettySize=auto;html=1;exitX=0.75;exitY=1;exitDx=0;exitDy=0;entryX=0.38;entryY=0.025;entryDx=0;entryDy=0;endArrow=none;endFill=0;entryPerimeter=0;" parent="1" source="V5Fr79l8Gq5V4lvlE3Y7-115" target="V5Fr79l8Gq5V4lvlE3Y7-57" edge="1">
          <mxGeometry relative="1" as="geometry">
            <mxPoint x="64.59999999999991" y="480" as="sourcePoint" />
            <mxPoint x="40" y="440" as="targetPoint" />
          </mxGeometry>
        </mxCell>
        <mxCell id="V5Fr79l8Gq5V4lvlE3Y7-62" style="rounded=0;orthogonalLoop=1;jettySize=auto;html=1;exitX=1;exitY=0.5;exitDx=0;exitDy=0;entryX=0;entryY=0.5;entryDx=0;entryDy=0;endArrow=none;endFill=0;" parent="1" target="V5Fr79l8Gq5V4lvlE3Y7-58" edge="1">
          <mxGeometry relative="1" as="geometry">
            <mxPoint x="89.59999999999991" y="500" as="sourcePoint" />
            <mxPoint x="125" y="454" as="targetPoint" />
          </mxGeometry>
        </mxCell>
        <mxCell id="V5Fr79l8Gq5V4lvlE3Y7-65" value="POSSUI" style="shape=rhombus;perimeter=rhombusPerimeter;whiteSpace=wrap;html=1;align=center;" parent="1" vertex="1">
          <mxGeometry x="170" y="319.5" width="120" height="60" as="geometry" />
        </mxCell>
        <mxCell id="V5Fr79l8Gq5V4lvlE3Y7-67" style="edgeStyle=orthogonalEdgeStyle;rounded=0;orthogonalLoop=1;jettySize=auto;html=1;exitX=0.5;exitY=1;exitDx=0;exitDy=0;entryX=0.5;entryY=0;entryDx=0;entryDy=0;endArrow=none;endFill=0;" parent="1" source="V5Fr79l8Gq5V4lvlE3Y7-65" target="V5Fr79l8Gq5V4lvlE3Y7-3" edge="1">
          <mxGeometry relative="1" as="geometry">
            <mxPoint x="240" y="150" as="sourcePoint" />
            <mxPoint x="240" y="200" as="targetPoint" />
          </mxGeometry>
        </mxCell>
        <mxCell id="V5Fr79l8Gq5V4lvlE3Y7-69" value="N" style="edgeLabel;html=1;align=center;verticalAlign=middle;resizable=0;points=[];" parent="V5Fr79l8Gq5V4lvlE3Y7-67" vertex="1" connectable="0">
          <mxGeometry x="-0.6533" relative="1" as="geometry">
            <mxPoint x="7" y="-27" as="offset" />
          </mxGeometry>
        </mxCell>
        <mxCell id="V5Fr79l8Gq5V4lvlE3Y7-70" value="FAZEM PARTE" style="shape=rhombus;perimeter=rhombusPerimeter;whiteSpace=wrap;html=1;align=center;" parent="1" vertex="1">
          <mxGeometry x="-140" y="90" width="120" height="60" as="geometry" />
        </mxCell>
        <mxCell id="V5Fr79l8Gq5V4lvlE3Y7-72" style="edgeStyle=orthogonalEdgeStyle;rounded=0;orthogonalLoop=1;jettySize=auto;html=1;exitX=0;exitY=0.5;exitDx=0;exitDy=0;entryX=1;entryY=0.5;entryDx=0;entryDy=0;endArrow=none;endFill=0;" parent="1" source="V5Fr79l8Gq5V4lvlE3Y7-1" target="V5Fr79l8Gq5V4lvlE3Y7-70" edge="1">
          <mxGeometry relative="1" as="geometry">
            <mxPoint x="240" y="150" as="sourcePoint" />
            <mxPoint x="240" y="200" as="targetPoint" />
          </mxGeometry>
        </mxCell>
        <mxCell id="V5Fr79l8Gq5V4lvlE3Y7-73" value="1" style="edgeLabel;html=1;align=center;verticalAlign=middle;resizable=0;points=[];" parent="V5Fr79l8Gq5V4lvlE3Y7-72" vertex="1" connectable="0">
          <mxGeometry x="0.6933" relative="1" as="geometry">
            <mxPoint x="-26" y="-10" as="offset" />
          </mxGeometry>
        </mxCell>
        <mxCell id="V5Fr79l8Gq5V4lvlE3Y7-74" style="edgeStyle=orthogonalEdgeStyle;rounded=0;orthogonalLoop=1;jettySize=auto;html=1;exitX=0;exitY=0.5;exitDx=0;exitDy=0;entryX=1;entryY=0.5;entryDx=0;entryDy=0;endArrow=none;endFill=0;shape=link;" parent="1" source="V5Fr79l8Gq5V4lvlE3Y7-70" target="V5Fr79l8Gq5V4lvlE3Y7-4" edge="1">
          <mxGeometry relative="1" as="geometry">
            <mxPoint x="240" y="260" as="sourcePoint" />
            <mxPoint x="240" y="310" as="targetPoint" />
          </mxGeometry>
        </mxCell>
        <mxCell id="V5Fr79l8Gq5V4lvlE3Y7-75" value="N" style="edgeLabel;html=1;align=center;verticalAlign=middle;resizable=0;points=[];" parent="V5Fr79l8Gq5V4lvlE3Y7-74" vertex="1" connectable="0">
          <mxGeometry x="-0.6533" relative="1" as="geometry">
            <mxPoint x="21" y="-10" as="offset" />
          </mxGeometry>
        </mxCell>
        <mxCell id="V5Fr79l8Gq5V4lvlE3Y7-76" value="Código" style="ellipse;whiteSpace=wrap;html=1;align=center;fontStyle=4;" parent="1" vertex="1">
          <mxGeometry x="-430" y="20" width="100" height="40" as="geometry" />
        </mxCell>
        <mxCell id="V5Fr79l8Gq5V4lvlE3Y7-77" style="rounded=0;orthogonalLoop=1;jettySize=auto;html=1;exitX=0.5;exitY=0;exitDx=0;exitDy=0;entryX=0.5;entryY=1;entryDx=0;entryDy=0;endArrow=none;endFill=0;" parent="1" source="V5Fr79l8Gq5V4lvlE3Y7-4" target="V5Fr79l8Gq5V4lvlE3Y7-76" edge="1">
          <mxGeometry relative="1" as="geometry">
            <mxPoint x="-440" y="126" as="sourcePoint" />
            <mxPoint x="-500" y="100" as="targetPoint" />
          </mxGeometry>
        </mxCell>
        <mxCell id="V5Fr79l8Gq5V4lvlE3Y7-78" value="É UM ITINERÁRIO DE" style="shape=rhombus;perimeter=rhombusPerimeter;align=center;verticalAlign=middle;labelPosition=center;verticalLabelPosition=middle;spacing=0;fontSize=9;" parent="1" vertex="1">
          <mxGeometry x="-600" y="90" width="120" height="60" as="geometry" />
        </mxCell>
        <mxCell id="V5Fr79l8Gq5V4lvlE3Y7-88" style="edgeStyle=orthogonalEdgeStyle;rounded=0;orthogonalLoop=1;jettySize=auto;html=1;exitX=0;exitY=0.5;exitDx=0;exitDy=0;endArrow=none;endFill=0;entryX=1;entryY=0.5;entryDx=0;entryDy=0;" parent="1" target="V5Fr79l8Gq5V4lvlE3Y7-100" edge="1">
          <mxGeometry relative="1" as="geometry">
            <mxPoint x="-600" y="119.87" as="sourcePoint" />
            <mxPoint x="-670" y="119.99999999999977" as="targetPoint" />
            <Array as="points" />
          </mxGeometry>
        </mxCell>
        <mxCell id="V5Fr79l8Gq5V4lvlE3Y7-89" value="N" style="edgeLabel;html=1;align=center;verticalAlign=middle;resizable=0;points=[];" parent="V5Fr79l8Gq5V4lvlE3Y7-88" vertex="1" connectable="0">
          <mxGeometry x="0.6933" relative="1" as="geometry">
            <mxPoint x="48" y="-10" as="offset" />
          </mxGeometry>
        </mxCell>
        <mxCell id="V5Fr79l8Gq5V4lvlE3Y7-108" value="" style="edgeStyle=orthogonalEdgeStyle;rounded=0;orthogonalLoop=1;jettySize=auto;html=1;endArrow=none;endFill=0;exitX=0.5;exitY=0;exitDx=0;exitDy=0;entryX=0.5;entryY=1;entryDx=0;entryDy=0;" parent="1" source="V5Fr79l8Gq5V4lvlE3Y7-100" target="V5Fr79l8Gq5V4lvlE3Y7-107" edge="1">
          <mxGeometry relative="1" as="geometry" />
        </mxCell>
        <mxCell id="V5Fr79l8Gq5V4lvlE3Y7-100" value="Ponto de parada" style="shape=ext;margin=3;double=1;whiteSpace=wrap;html=1;align=center;" parent="1" vertex="1">
          <mxGeometry x="-770" y="100" width="100" height="40" as="geometry" />
        </mxCell>
        <mxCell id="V5Fr79l8Gq5V4lvlE3Y7-103" style="edgeStyle=orthogonalEdgeStyle;rounded=0;orthogonalLoop=1;jettySize=auto;html=1;exitX=0.5;exitY=1;exitDx=0;exitDy=0;entryX=0.5;entryY=0;entryDx=0;entryDy=0;endArrow=none;endFill=0;" parent="1" source="V5Fr79l8Gq5V4lvlE3Y7-102" target="V5Fr79l8Gq5V4lvlE3Y7-8" edge="1">
          <mxGeometry relative="1" as="geometry" />
        </mxCell>
        <mxCell id="V5Fr79l8Gq5V4lvlE3Y7-106" value="1" style="edgeLabel;html=1;align=center;verticalAlign=middle;resizable=0;points=[];" parent="V5Fr79l8Gq5V4lvlE3Y7-103" vertex="1" connectable="0">
          <mxGeometry x="-0.52" y="-1" relative="1" as="geometry">
            <mxPoint x="9" y="-1" as="offset" />
          </mxGeometry>
        </mxCell>
        <mxCell id="V5Fr79l8Gq5V4lvlE3Y7-104" style="edgeStyle=orthogonalEdgeStyle;rounded=0;orthogonalLoop=1;jettySize=auto;html=1;exitX=0.5;exitY=0;exitDx=0;exitDy=0;entryX=0.5;entryY=1;entryDx=0;entryDy=0;endArrow=none;endFill=0;shape=link;" parent="1" source="V5Fr79l8Gq5V4lvlE3Y7-102" target="V5Fr79l8Gq5V4lvlE3Y7-100" edge="1">
          <mxGeometry relative="1" as="geometry" />
        </mxCell>
        <mxCell id="V5Fr79l8Gq5V4lvlE3Y7-105" value="1" style="edgeLabel;html=1;align=center;verticalAlign=middle;resizable=0;points=[];" parent="V5Fr79l8Gq5V4lvlE3Y7-104" vertex="1" connectable="0">
          <mxGeometry x="-0.605" relative="1" as="geometry">
            <mxPoint x="8" y="73" as="offset" />
          </mxGeometry>
        </mxCell>
        <mxCell id="z0Y2EbSfUYAgFqCNGjC1-16" value="1" style="edgeLabel;html=1;align=center;verticalAlign=middle;resizable=0;points=[];" parent="V5Fr79l8Gq5V4lvlE3Y7-104" vertex="1" connectable="0">
          <mxGeometry x="-0.1385" y="4" relative="1" as="geometry">
            <mxPoint x="14" y="3" as="offset" />
          </mxGeometry>
        </mxCell>
        <mxCell id="V5Fr79l8Gq5V4lvlE3Y7-102" value="É UM" style="shape=rhombus;double=1;perimeter=rhombusPerimeter;whiteSpace=wrap;html=1;align=center;" parent="1" vertex="1">
          <mxGeometry x="-780" y="169.50000000000003" width="120" height="60" as="geometry" />
        </mxCell>
        <mxCell id="V5Fr79l8Gq5V4lvlE3Y7-107" value="&lt;span style=&quot;border-bottom: 1px dotted;&quot;&gt;Posição&lt;/span&gt;" style="ellipse;whiteSpace=wrap;html=1;align=center;" parent="1" vertex="1">
          <mxGeometry x="-770" y="20" width="100" height="40" as="geometry" />
        </mxCell>
        <mxCell id="V5Fr79l8Gq5V4lvlE3Y7-110" value="&lt;span&gt;Latitude&lt;/span&gt;" style="ellipse;whiteSpace=wrap;html=1;align=center;fontStyle=0" parent="1" vertex="1">
          <mxGeometry x="-835" y="404.5" width="100" height="40" as="geometry" />
        </mxCell>
        <mxCell id="V5Fr79l8Gq5V4lvlE3Y7-111" value="&lt;span&gt;Longitude&lt;/span&gt;" style="ellipse;whiteSpace=wrap;html=1;align=center;fontStyle=0" parent="1" vertex="1">
          <mxGeometry x="-710" y="404.5" width="100" height="40" as="geometry" />
        </mxCell>
        <mxCell id="V5Fr79l8Gq5V4lvlE3Y7-113" style="rounded=0;orthogonalLoop=1;jettySize=auto;html=1;entryX=0.5;entryY=0;entryDx=0;entryDy=0;endArrow=none;endFill=0;exitX=0.5;exitY=1;exitDx=0;exitDy=0;" parent="1" source="z0Y2EbSfUYAgFqCNGjC1-13" target="V5Fr79l8Gq5V4lvlE3Y7-111" edge="1">
          <mxGeometry relative="1" as="geometry">
            <mxPoint x="-655" y="394.5" as="sourcePoint" />
            <mxPoint x="-775" y="494.5" as="targetPoint" />
          </mxGeometry>
        </mxCell>
        <mxCell id="V5Fr79l8Gq5V4lvlE3Y7-115" value="Motorista" style="whiteSpace=wrap;html=1;align=center;" parent="1" vertex="1">
          <mxGeometry x="-10" y="480" width="100" height="40" as="geometry" />
        </mxCell>
        <mxCell id="V5Fr79l8Gq5V4lvlE3Y7-119" style="edgeStyle=orthogonalEdgeStyle;rounded=0;orthogonalLoop=1;jettySize=auto;html=1;exitX=0;exitY=0.5;exitDx=0;exitDy=0;entryX=1;entryY=0.5;entryDx=0;entryDy=0;endArrow=none;endFill=0;" parent="1" source="V5Fr79l8Gq5V4lvlE3Y7-123" target="V5Fr79l8Gq5V4lvlE3Y7-3" edge="1">
          <mxGeometry relative="1" as="geometry">
            <mxPoint x="230" y="390" as="sourcePoint" />
          </mxGeometry>
        </mxCell>
        <mxCell id="V5Fr79l8Gq5V4lvlE3Y7-122" value="1" style="edgeLabel;html=1;align=center;verticalAlign=middle;resizable=0;points=[];" parent="V5Fr79l8Gq5V4lvlE3Y7-119" vertex="1" connectable="0">
          <mxGeometry x="-0.7143" y="-1" relative="1" as="geometry">
            <mxPoint x="1" y="-8" as="offset" />
          </mxGeometry>
        </mxCell>
        <mxCell id="V5Fr79l8Gq5V4lvlE3Y7-120" style="edgeStyle=orthogonalEdgeStyle;rounded=0;orthogonalLoop=1;jettySize=auto;html=1;exitX=0;exitY=0.5;exitDx=0;exitDy=0;entryX=1;entryY=0.5;entryDx=0;entryDy=0;endArrow=none;endFill=0;shape=link;" parent="1" source="V5Fr79l8Gq5V4lvlE3Y7-13" target="V5Fr79l8Gq5V4lvlE3Y7-123" edge="1">
          <mxGeometry relative="1" as="geometry">
            <mxPoint x="490" y="490" as="sourcePoint" />
            <mxPoint x="490" y="440" as="targetPoint" />
          </mxGeometry>
        </mxCell>
        <mxCell id="V5Fr79l8Gq5V4lvlE3Y7-124" value="N" style="edgeLabel;html=1;align=center;verticalAlign=middle;resizable=0;points=[];" parent="V5Fr79l8Gq5V4lvlE3Y7-120" vertex="1" connectable="0">
          <mxGeometry x="0.7036" y="-1" relative="1" as="geometry">
            <mxPoint x="-3" y="-12" as="offset" />
          </mxGeometry>
        </mxCell>
        <mxCell id="V5Fr79l8Gq5V4lvlE3Y7-123" value="POSSUI" style="shape=rhombus;double=1;perimeter=rhombusPerimeter;whiteSpace=wrap;html=1;align=center;" parent="1" vertex="1">
          <mxGeometry x="320" y="564.5" width="120" height="60" as="geometry" />
        </mxCell>
        <mxCell id="V5Fr79l8Gq5V4lvlE3Y7-129" style="edgeStyle=orthogonalEdgeStyle;rounded=0;orthogonalLoop=1;jettySize=auto;html=1;exitX=1;exitY=0.5;exitDx=0;exitDy=0;entryX=0;entryY=0.5;entryDx=0;entryDy=0;endArrow=none;endFill=0;" parent="1" source="V5Fr79l8Gq5V4lvlE3Y7-78" target="V5Fr79l8Gq5V4lvlE3Y7-4" edge="1">
          <mxGeometry relative="1" as="geometry">
            <mxPoint x="-480" y="120" as="sourcePoint" />
            <mxPoint x="-580" y="130" as="targetPoint" />
          </mxGeometry>
        </mxCell>
        <mxCell id="V5Fr79l8Gq5V4lvlE3Y7-131" value="N" style="edgeLabel;html=1;align=center;verticalAlign=middle;resizable=0;points=[];" parent="V5Fr79l8Gq5V4lvlE3Y7-129" vertex="1" connectable="0">
          <mxGeometry x="-0.6833" y="-1" relative="1" as="geometry">
            <mxPoint x="-5" y="-9" as="offset" />
          </mxGeometry>
        </mxCell>
        <mxCell id="z0Y2EbSfUYAgFqCNGjC1-3" value="PODE SER" style="shape=rhombus;perimeter=rhombusPerimeter;whiteSpace=wrap;html=1;align=center;" parent="1" vertex="1">
          <mxGeometry x="650" y="600" width="120" height="60" as="geometry" />
        </mxCell>
        <mxCell id="z0Y2EbSfUYAgFqCNGjC1-4" value="PODE SER" style="shape=rhombus;perimeter=rhombusPerimeter;whiteSpace=wrap;html=1;align=center;" parent="1" vertex="1">
          <mxGeometry x="650" y="525" width="120" height="60" as="geometry" />
        </mxCell>
        <mxCell id="z0Y2EbSfUYAgFqCNGjC1-6" style="rounded=0;orthogonalLoop=1;jettySize=auto;html=1;exitX=1;exitY=0.5;exitDx=0;exitDy=0;entryX=0;entryY=0.5;entryDx=0;entryDy=0;endArrow=none;endFill=0;" parent="1" source="V5Fr79l8Gq5V4lvlE3Y7-13" target="z0Y2EbSfUYAgFqCNGjC1-4" edge="1">
          <mxGeometry relative="1" as="geometry">
            <mxPoint x="637" y="574.5" as="sourcePoint" />
            <mxPoint x="557" y="619.5" as="targetPoint" />
          </mxGeometry>
        </mxCell>
        <mxCell id="z0Y2EbSfUYAgFqCNGjC1-9" value="1" style="edgeLabel;html=1;align=center;verticalAlign=middle;resizable=0;points=[];" parent="z0Y2EbSfUYAgFqCNGjC1-6" vertex="1" connectable="0">
          <mxGeometry x="0.5382" y="1" relative="1" as="geometry">
            <mxPoint x="4" y="-13" as="offset" />
          </mxGeometry>
        </mxCell>
        <mxCell id="z0Y2EbSfUYAgFqCNGjC1-7" style="rounded=0;orthogonalLoop=1;jettySize=auto;html=1;exitX=1;exitY=0.5;exitDx=0;exitDy=0;entryX=0;entryY=0.5;entryDx=0;entryDy=0;endArrow=none;endFill=0;shape=link;" parent="1" source="z0Y2EbSfUYAgFqCNGjC1-3" target="V5Fr79l8Gq5V4lvlE3Y7-5" edge="1">
          <mxGeometry relative="1" as="geometry">
            <mxPoint x="637" y="574.5" as="sourcePoint" />
            <mxPoint x="557" y="619.5" as="targetPoint" />
          </mxGeometry>
        </mxCell>
        <mxCell id="z0Y2EbSfUYAgFqCNGjC1-11" value="0...1" style="edgeLabel;html=1;align=center;verticalAlign=middle;resizable=0;points=[];" parent="z0Y2EbSfUYAgFqCNGjC1-7" vertex="1" connectable="0">
          <mxGeometry x="-0.6026" y="-1" relative="1" as="geometry">
            <mxPoint x="-6" y="-12" as="offset" />
          </mxGeometry>
        </mxCell>
        <mxCell id="z0Y2EbSfUYAgFqCNGjC1-8" style="rounded=0;orthogonalLoop=1;jettySize=auto;html=1;exitX=1;exitY=0.5;exitDx=0;exitDy=0;entryX=0;entryY=0.5;entryDx=0;entryDy=0;endArrow=none;endFill=0;shape=link;" parent="1" source="z0Y2EbSfUYAgFqCNGjC1-4" target="V5Fr79l8Gq5V4lvlE3Y7-14" edge="1">
          <mxGeometry relative="1" as="geometry">
            <mxPoint x="637" y="574.5" as="sourcePoint" />
            <mxPoint x="717" y="619.5" as="targetPoint" />
          </mxGeometry>
        </mxCell>
        <mxCell id="1fmlvgPisqNwxJyAT-ff-77" value="0...1" style="edgeLabel;html=1;align=center;verticalAlign=middle;resizable=0;points=[];" parent="z0Y2EbSfUYAgFqCNGjC1-8" vertex="1" connectable="0">
          <mxGeometry x="-0.8083" y="2" relative="1" as="geometry">
            <mxPoint x="2" y="-10" as="offset" />
          </mxGeometry>
        </mxCell>
        <mxCell id="z0Y2EbSfUYAgFqCNGjC1-14" style="edgeStyle=orthogonalEdgeStyle;rounded=0;orthogonalLoop=1;jettySize=auto;html=1;exitX=0.5;exitY=0;exitDx=0;exitDy=0;entryX=0.5;entryY=1;entryDx=0;entryDy=0;endArrow=none;endFill=0;" parent="1" source="z0Y2EbSfUYAgFqCNGjC1-13" target="V5Fr79l8Gq5V4lvlE3Y7-8" edge="1">
          <mxGeometry relative="1" as="geometry" />
        </mxCell>
        <mxCell id="z0Y2EbSfUYAgFqCNGjC1-13" value="&lt;div&gt;&lt;u&gt;Coordenada&lt;/u&gt;&lt;/div&gt;&lt;div&gt;&lt;u&gt;geográfica&lt;/u&gt;&lt;/div&gt;" style="ellipse;whiteSpace=wrap;html=1;align=center;fontStyle=0" parent="1" vertex="1">
          <mxGeometry x="-770" y="339.5" width="100" height="40" as="geometry" />
        </mxCell>
        <mxCell id="z0Y2EbSfUYAgFqCNGjC1-15" style="edgeStyle=orthogonalEdgeStyle;rounded=0;orthogonalLoop=1;jettySize=auto;html=1;exitX=0.5;exitY=0;exitDx=0;exitDy=0;entryX=0.5;entryY=1;entryDx=0;entryDy=0;endArrow=none;endFill=0;" parent="1" source="V5Fr79l8Gq5V4lvlE3Y7-8" target="V5Fr79l8Gq5V4lvlE3Y7-102" edge="1">
          <mxGeometry relative="1" as="geometry" />
        </mxCell>
        <mxCell id="z0Y2EbSfUYAgFqCNGjC1-22" value="Data" style="ellipse;whiteSpace=wrap;html=1;align=center;fontStyle=0;" parent="1" vertex="1">
          <mxGeometry x="450" y="490" width="100" height="40" as="geometry" />
        </mxCell>
        <mxCell id="z0Y2EbSfUYAgFqCNGjC1-23" value="Hora" style="ellipse;whiteSpace=wrap;html=1;align=center;fontStyle=0;" parent="1" vertex="1">
          <mxGeometry x="560" y="490" width="100" height="40" as="geometry" />
        </mxCell>
        <mxCell id="z0Y2EbSfUYAgFqCNGjC1-26" value="Nome" style="ellipse;whiteSpace=wrap;html=1;align=center;fontStyle=0" parent="1" vertex="1">
          <mxGeometry x="-920" y="229.5" width="100" height="40" as="geometry" />
        </mxCell>
        <mxCell id="z0Y2EbSfUYAgFqCNGjC1-28" value="Descrição" style="ellipse;whiteSpace=wrap;html=1;align=center;fontStyle=0" parent="1" vertex="1">
          <mxGeometry x="-920" y="309.5" width="100" height="40" as="geometry" />
        </mxCell>
        <mxCell id="1fmlvgPisqNwxJyAT-ff-1" value="" style="group" parent="1" vertex="1" connectable="0">
          <mxGeometry x="-310" y="200" width="480" height="300" as="geometry" />
        </mxCell>
        <mxCell id="V5Fr79l8Gq5V4lvlE3Y7-41" style="rounded=0;orthogonalLoop=1;jettySize=auto;html=1;exitX=0;exitY=0;exitDx=0;exitDy=0;entryX=1;entryY=1;entryDx=0;entryDy=0;endArrow=none;endFill=0;" parent="1fmlvgPisqNwxJyAT-ff-1" source="V5Fr79l8Gq5V4lvlE3Y7-2" target="V5Fr79l8Gq5V4lvlE3Y7-31" edge="1">
          <mxGeometry relative="1" as="geometry" />
        </mxCell>
        <mxCell id="V5Fr79l8Gq5V4lvlE3Y7-64" style="rounded=0;orthogonalLoop=1;jettySize=auto;html=1;exitX=1;exitY=0.5;exitDx=0;exitDy=0;entryX=0;entryY=0.5;entryDx=0;entryDy=0;endArrow=none;endFill=0;" parent="1fmlvgPisqNwxJyAT-ff-1" source="V5Fr79l8Gq5V4lvlE3Y7-2" target="V5Fr79l8Gq5V4lvlE3Y7-63" edge="1">
          <mxGeometry relative="1" as="geometry" />
        </mxCell>
        <mxCell id="V5Fr79l8Gq5V4lvlE3Y7-2" value="Funcionário" style="whiteSpace=wrap;html=1;align=center;" parent="1fmlvgPisqNwxJyAT-ff-1" vertex="1">
          <mxGeometry x="160" y="140" width="100" height="40" as="geometry" />
        </mxCell>
        <mxCell id="V5Fr79l8Gq5V4lvlE3Y7-31" value="Código" style="ellipse;whiteSpace=wrap;html=1;align=center;fontStyle=4;" parent="1fmlvgPisqNwxJyAT-ff-1" vertex="1">
          <mxGeometry y="90" width="100" height="40" as="geometry" />
        </mxCell>
        <mxCell id="V5Fr79l8Gq5V4lvlE3Y7-33" value="Nome" style="ellipse;whiteSpace=wrap;html=1;align=center;" parent="1fmlvgPisqNwxJyAT-ff-1" vertex="1">
          <mxGeometry x="30" y="40" width="100" height="40" as="geometry" />
        </mxCell>
        <mxCell id="V5Fr79l8Gq5V4lvlE3Y7-34" value="Data de nascimento" style="ellipse;whiteSpace=wrap;html=1;align=center;" parent="1fmlvgPisqNwxJyAT-ff-1" vertex="1">
          <mxGeometry x="350" y="60" width="100" height="40" as="geometry" />
        </mxCell>
        <mxCell id="V5Fr79l8Gq5V4lvlE3Y7-35" value="Data de contratação" style="ellipse;whiteSpace=wrap;html=1;align=center;" parent="1fmlvgPisqNwxJyAT-ff-1" vertex="1">
          <mxGeometry x="350" y="160" width="100" height="40" as="geometry" />
        </mxCell>
        <mxCell id="V5Fr79l8Gq5V4lvlE3Y7-36" value="&lt;div&gt;Data de&amp;nbsp;&lt;/div&gt;&lt;div&gt;demissão&lt;/div&gt;" style="ellipse;whiteSpace=wrap;html=1;align=center;" parent="1fmlvgPisqNwxJyAT-ff-1" vertex="1">
          <mxGeometry x="320" y="210" width="100" height="40" as="geometry" />
        </mxCell>
        <mxCell id="V5Fr79l8Gq5V4lvlE3Y7-37" value="Idade" style="ellipse;whiteSpace=wrap;html=1;align=center;dashed=1;" parent="1fmlvgPisqNwxJyAT-ff-1" vertex="1">
          <mxGeometry y="140" width="100" height="40" as="geometry" />
        </mxCell>
        <mxCell id="V5Fr79l8Gq5V4lvlE3Y7-38" value="&lt;div&gt;Tempo de&amp;nbsp;&lt;/div&gt;&lt;div&gt;serviço&lt;/div&gt;" style="ellipse;whiteSpace=wrap;html=1;align=center;dashed=1;" parent="1fmlvgPisqNwxJyAT-ff-1" vertex="1">
          <mxGeometry x="220" y="230" width="100" height="40" as="geometry" />
        </mxCell>
        <mxCell id="V5Fr79l8Gq5V4lvlE3Y7-39" value="Sexo" style="ellipse;whiteSpace=wrap;html=1;align=center;" parent="1fmlvgPisqNwxJyAT-ff-1" vertex="1">
          <mxGeometry x="100" width="100" height="40" as="geometry" />
        </mxCell>
        <mxCell id="V5Fr79l8Gq5V4lvlE3Y7-40" value="Cargo" style="ellipse;whiteSpace=wrap;html=1;align=center;" parent="1fmlvgPisqNwxJyAT-ff-1" vertex="1">
          <mxGeometry x="204" y="-1" width="100" height="40" as="geometry" />
        </mxCell>
        <mxCell id="V5Fr79l8Gq5V4lvlE3Y7-42" style="rounded=0;orthogonalLoop=1;jettySize=auto;html=1;exitX=0.14;exitY=0.001;exitDx=0;exitDy=0;entryX=1;entryY=1;entryDx=0;entryDy=0;endArrow=none;endFill=0;exitPerimeter=0;" parent="1fmlvgPisqNwxJyAT-ff-1" source="V5Fr79l8Gq5V4lvlE3Y7-2" target="V5Fr79l8Gq5V4lvlE3Y7-33" edge="1">
          <mxGeometry relative="1" as="geometry">
            <mxPoint x="195" y="150" as="sourcePoint" />
            <mxPoint x="135" y="94" as="targetPoint" />
          </mxGeometry>
        </mxCell>
        <mxCell id="V5Fr79l8Gq5V4lvlE3Y7-43" style="rounded=0;orthogonalLoop=1;jettySize=auto;html=1;entryX=0.5;entryY=1;entryDx=0;entryDy=0;endArrow=none;endFill=0;exitX=0.25;exitY=0;exitDx=0;exitDy=0;" parent="1fmlvgPisqNwxJyAT-ff-1" source="V5Fr79l8Gq5V4lvlE3Y7-2" target="V5Fr79l8Gq5V4lvlE3Y7-39" edge="1">
          <mxGeometry relative="1" as="geometry">
            <mxPoint x="180" y="140" as="sourcePoint" />
            <mxPoint x="200" y="70" as="targetPoint" />
          </mxGeometry>
        </mxCell>
        <mxCell id="V5Fr79l8Gq5V4lvlE3Y7-44" style="rounded=0;orthogonalLoop=1;jettySize=auto;html=1;entryX=0.5;entryY=1;entryDx=0;entryDy=0;endArrow=none;endFill=0;" parent="1fmlvgPisqNwxJyAT-ff-1" target="V5Fr79l8Gq5V4lvlE3Y7-40" edge="1">
          <mxGeometry relative="1" as="geometry">
            <mxPoint x="210" y="140" as="sourcePoint" />
            <mxPoint x="275" y="84" as="targetPoint" />
          </mxGeometry>
        </mxCell>
        <mxCell id="V5Fr79l8Gq5V4lvlE3Y7-45" style="rounded=0;orthogonalLoop=1;jettySize=auto;html=1;exitX=1;exitY=0.25;exitDx=0;exitDy=0;entryX=0;entryY=1;entryDx=0;entryDy=0;endArrow=none;endFill=0;" parent="1fmlvgPisqNwxJyAT-ff-1" source="V5Fr79l8Gq5V4lvlE3Y7-2" target="V5Fr79l8Gq5V4lvlE3Y7-34" edge="1">
          <mxGeometry relative="1" as="geometry">
            <mxPoint x="270" y="150" as="sourcePoint" />
            <mxPoint x="330" y="110" as="targetPoint" />
          </mxGeometry>
        </mxCell>
        <mxCell id="V5Fr79l8Gq5V4lvlE3Y7-46" style="rounded=0;orthogonalLoop=1;jettySize=auto;html=1;exitX=1;exitY=0.75;exitDx=0;exitDy=0;entryX=0;entryY=0.5;entryDx=0;entryDy=0;endArrow=none;endFill=0;" parent="1fmlvgPisqNwxJyAT-ff-1" source="V5Fr79l8Gq5V4lvlE3Y7-2" target="V5Fr79l8Gq5V4lvlE3Y7-35" edge="1">
          <mxGeometry relative="1" as="geometry">
            <mxPoint x="270" y="170" as="sourcePoint" />
            <mxPoint x="330" y="160" as="targetPoint" />
          </mxGeometry>
        </mxCell>
        <mxCell id="V5Fr79l8Gq5V4lvlE3Y7-47" style="rounded=0;orthogonalLoop=1;jettySize=auto;html=1;exitX=1;exitY=1;exitDx=0;exitDy=0;entryX=0;entryY=0;entryDx=0;entryDy=0;endArrow=none;endFill=0;" parent="1fmlvgPisqNwxJyAT-ff-1" source="V5Fr79l8Gq5V4lvlE3Y7-2" target="V5Fr79l8Gq5V4lvlE3Y7-36" edge="1">
          <mxGeometry relative="1" as="geometry">
            <mxPoint x="270" y="180" as="sourcePoint" />
            <mxPoint x="330" y="210" as="targetPoint" />
          </mxGeometry>
        </mxCell>
        <mxCell id="V5Fr79l8Gq5V4lvlE3Y7-48" style="rounded=0;orthogonalLoop=1;jettySize=auto;html=1;exitX=0.915;exitY=1.004;exitDx=0;exitDy=0;entryX=0.5;entryY=0;entryDx=0;entryDy=0;endArrow=none;endFill=0;exitPerimeter=0;" parent="1fmlvgPisqNwxJyAT-ff-1" source="V5Fr79l8Gq5V4lvlE3Y7-2" target="V5Fr79l8Gq5V4lvlE3Y7-38" edge="1">
          <mxGeometry relative="1" as="geometry">
            <mxPoint x="270" y="190" as="sourcePoint" />
            <mxPoint x="330" y="240" as="targetPoint" />
          </mxGeometry>
        </mxCell>
        <mxCell id="V5Fr79l8Gq5V4lvlE3Y7-49" style="rounded=0;orthogonalLoop=1;jettySize=auto;html=1;exitX=0;exitY=0.25;exitDx=0;exitDy=0;entryX=1;entryY=0.5;entryDx=0;entryDy=0;endArrow=none;endFill=0;" parent="1fmlvgPisqNwxJyAT-ff-1" source="V5Fr79l8Gq5V4lvlE3Y7-2" target="V5Fr79l8Gq5V4lvlE3Y7-37" edge="1">
          <mxGeometry relative="1" as="geometry">
            <mxPoint x="245" y="190" as="sourcePoint" />
            <mxPoint x="220" y="250" as="targetPoint" />
          </mxGeometry>
        </mxCell>
        <mxCell id="V5Fr79l8Gq5V4lvlE3Y7-63" value="Telefone" style="ellipse;shape=doubleEllipse;margin=3;whiteSpace=wrap;html=1;align=center;" parent="1fmlvgPisqNwxJyAT-ff-1" vertex="1">
          <mxGeometry x="350" y="110" width="100" height="40" as="geometry" />
        </mxCell>
        <mxCell id="1fmlvgPisqNwxJyAT-ff-3" style="rounded=0;orthogonalLoop=1;jettySize=auto;html=1;exitX=0.75;exitY=0;exitDx=0;exitDy=0;entryX=0;entryY=0.5;entryDx=0;entryDy=0;endArrow=none;endFill=0;" parent="1" source="V5Fr79l8Gq5V4lvlE3Y7-2" target="V5Fr79l8Gq5V4lvlE3Y7-23" edge="1">
          <mxGeometry relative="1" as="geometry" />
        </mxCell>
        <mxCell id="1fmlvgPisqNwxJyAT-ff-53" value="N" style="edgeLabel;html=1;align=center;verticalAlign=middle;resizable=0;points=[];" parent="1fmlvgPisqNwxJyAT-ff-3" vertex="1" connectable="0">
          <mxGeometry x="0.8474" y="2" relative="1" as="geometry">
            <mxPoint y="-13" as="offset" />
          </mxGeometry>
        </mxCell>
        <mxCell id="V5Fr79l8Gq5V4lvlE3Y7-116" value="PODE SER" style="shape=rhombus;perimeter=rhombusPerimeter;whiteSpace=wrap;html=1;align=center;" parent="1" vertex="1">
          <mxGeometry x="-190" y="470" width="120" height="60" as="geometry" />
        </mxCell>
        <mxCell id="1fmlvgPisqNwxJyAT-ff-51" style="edgeStyle=orthogonalEdgeStyle;rounded=0;orthogonalLoop=1;jettySize=auto;html=1;exitX=0.199;exitY=1.002;exitDx=0;exitDy=0;entryX=0.5;entryY=0;entryDx=0;entryDy=0;exitPerimeter=0;endArrow=none;endFill=0;" parent="1" source="V5Fr79l8Gq5V4lvlE3Y7-2" target="V5Fr79l8Gq5V4lvlE3Y7-116" edge="1">
          <mxGeometry relative="1" as="geometry" />
        </mxCell>
        <mxCell id="1fmlvgPisqNwxJyAT-ff-76" value="1" style="edgeLabel;html=1;align=center;verticalAlign=middle;resizable=0;points=[];" parent="1fmlvgPisqNwxJyAT-ff-51" vertex="1" connectable="0">
          <mxGeometry x="0.5992" relative="1" as="geometry">
            <mxPoint x="6" y="9" as="offset" />
          </mxGeometry>
        </mxCell>
        <mxCell id="1fmlvgPisqNwxJyAT-ff-82" style="edgeStyle=orthogonalEdgeStyle;rounded=0;orthogonalLoop=1;jettySize=auto;html=1;exitX=1;exitY=0.5;exitDx=0;exitDy=0;entryX=0;entryY=0.5;entryDx=0;entryDy=0;endArrow=none;endFill=0;" parent="1" source="1fmlvgPisqNwxJyAT-ff-79" target="V5Fr79l8Gq5V4lvlE3Y7-3" edge="1">
          <mxGeometry relative="1" as="geometry" />
        </mxCell>
        <mxCell id="1fmlvgPisqNwxJyAT-ff-87" value="1" style="edgeLabel;html=1;align=center;verticalAlign=middle;resizable=0;points=[];" parent="1fmlvgPisqNwxJyAT-ff-82" vertex="1" connectable="0">
          <mxGeometry x="-0.9419" y="-2" relative="1" as="geometry">
            <mxPoint x="-10" y="-12" as="offset" />
          </mxGeometry>
        </mxCell>
        <mxCell id="1fmlvgPisqNwxJyAT-ff-83" style="rounded=0;orthogonalLoop=1;jettySize=auto;html=1;exitX=1;exitY=0;exitDx=0;exitDy=0;entryX=0;entryY=1;entryDx=0;entryDy=0;endArrow=none;endFill=0;" parent="1" source="1fmlvgPisqNwxJyAT-ff-79" target="V5Fr79l8Gq5V4lvlE3Y7-2" edge="1">
          <mxGeometry relative="1" as="geometry" />
        </mxCell>
        <mxCell id="1fmlvgPisqNwxJyAT-ff-86" value="2" style="edgeLabel;html=1;align=center;verticalAlign=middle;resizable=0;points=[];" parent="1fmlvgPisqNwxJyAT-ff-83" vertex="1" connectable="0">
          <mxGeometry x="-0.9351" y="1" relative="1" as="geometry">
            <mxPoint x="-8" y="-5" as="offset" />
          </mxGeometry>
        </mxCell>
        <mxCell id="1fmlvgPisqNwxJyAT-ff-79" value="CONTÉM" style="shape=rhombus;perimeter=rhombusPerimeter;whiteSpace=wrap;html=1;align=center;" parent="1" vertex="1">
          <mxGeometry x="-430" y="565" width="120" height="60" as="geometry" />
        </mxCell>
        <mxCell id="bSuDawEjMHbS1dBYyhwq-26" style="rounded=0;orthogonalLoop=1;jettySize=auto;html=1;exitX=1;exitY=0.5;exitDx=0;exitDy=0;entryX=0;entryY=1;entryDx=0;entryDy=0;endArrow=none;endFill=0;" edge="1" parent="1" source="bSuDawEjMHbS1dBYyhwq-1" target="V5Fr79l8Gq5V4lvlE3Y7-11">
          <mxGeometry relative="1" as="geometry" />
        </mxCell>
        <mxCell id="bSuDawEjMHbS1dBYyhwq-1" value="&lt;div&gt;Horário&amp;nbsp;&lt;/div&gt;&lt;div&gt;de partida&lt;/div&gt;" style="ellipse;whiteSpace=wrap;html=1;align=center;fontStyle=0" vertex="1" parent="1">
          <mxGeometry x="-730" y="680" width="100" height="40" as="geometry" />
        </mxCell>
        <mxCell id="bSuDawEjMHbS1dBYyhwq-27" style="rounded=0;orthogonalLoop=1;jettySize=auto;html=1;exitX=0.5;exitY=0;exitDx=0;exitDy=0;entryX=0.25;entryY=1;entryDx=0;entryDy=0;endArrow=none;endFill=0;" edge="1" parent="1" source="bSuDawEjMHbS1dBYyhwq-2" target="V5Fr79l8Gq5V4lvlE3Y7-11">
          <mxGeometry relative="1" as="geometry" />
        </mxCell>
        <mxCell id="bSuDawEjMHbS1dBYyhwq-2" value="&lt;div&gt;Horário&amp;nbsp;&lt;/div&gt;&lt;div&gt;de chegada&lt;/div&gt;" style="ellipse;whiteSpace=wrap;html=1;align=center;fontStyle=0" vertex="1" parent="1">
          <mxGeometry x="-650" y="730" width="100" height="40" as="geometry" />
        </mxCell>
        <mxCell id="bSuDawEjMHbS1dBYyhwq-28" style="rounded=0;orthogonalLoop=1;jettySize=auto;html=1;exitX=0.5;exitY=0;exitDx=0;exitDy=0;entryX=0.5;entryY=1;entryDx=0;entryDy=0;endArrow=none;endFill=0;" edge="1" parent="1" source="bSuDawEjMHbS1dBYyhwq-25" target="V5Fr79l8Gq5V4lvlE3Y7-11">
          <mxGeometry relative="1" as="geometry" />
        </mxCell>
        <mxCell id="bSuDawEjMHbS1dBYyhwq-25" value="Duração" style="ellipse;whiteSpace=wrap;html=1;align=center;dashed=1;" vertex="1" parent="1">
          <mxGeometry x="-530" y="720" width="100" height="40" as="geometry" />
        </mxCell>
      </root>
    </mxGraphModel>
  </diagram>
</mxfile>
